<?xml version="1.0" standalone="no"?>
<!DOCTYPE svg PUBLIC "-//W3C//DTD SVG 20010904//EN"
 "http://www.w3.org/TR/2001/REC-SVG-20010904/DTD/svg10.dtd">
<svg version="1.0" xmlns="http://www.w3.org/2000/svg"
 width="428.000000pt" height="428.000000pt" viewBox="0 0 428.000000 428.000000"
 preserveAspectRatio="xMidYMid meet">
<metadata>
Created by potrace 1.14, written by Peter Selinger 2001-2017
</metadata>
<g transform="translate(0.000000,428.000000) scale(0.100000,-0.100000)"
fill="#000000" stroke="none">
<path d="M579 4030 c-24 -5 -24 -6 -24 -114 l0 -110 183 0 c100 -1 183 1 183
4 4 18 4 220 -1 220 -40 4 -323 4 -341 0z"/>
<path d="M1967 4030 c-9 -4 -12 -34 -11 -110 1 -58 2 -107 3 -110 0 -3 83 -5
184 -5 l182 0 0 113 c0 93 -2 112 -15 113 -74 3 -333 3 -343 -1z"/>
<path d="M3420 4030 l-65 -5 0 -103 c0 -84 2 -105 15 -111 8 -4 92 -6 185 -6
l170 1 0 112 1 112 -86 1 c-47 0 -101 1 -120 2 -19 1 -64 0 -100 -3z"/>
<path d="M142 3804 c-48 -21 -106 -84 -120 -130 -9 -32 -12 -358 -12 -1408 0
-1211 2 -1371 15 -1404 19 -45 48 -76 100 -110 l40 -26 378 -1 c207 0 377 0
377 1 0 1 -25 51 -55 111 -106 213 -153 411 -153 645 1 168 17 278 64 428 139
440 475 784 911 929 48 17 99 32 113 35 14 3 34 7 45 9 120 27 320 37 450 23
272 -31 538 -142 750 -316 169 -139 312 -324 394 -510 18 -41 37 -84 41 -95
48 -109 87 -324 88 -487 1 -251 -43 -441 -153 -660 -30 -60 -53 -109 -52 -109
11 -6 712 -3 743 4 53 10 121 68 145 121 18 39 19 102 19 1410 0 1008 -3 1379
-12 1407 -12 43 -45 83 -98 119 -30 21 -49 25 -137 28 l-103 4 0 -67 c0 -36
-5 -76 -12 -88 -28 -53 -20 -52 -347 -55 -168 -2 -315 -1 -327 2 -11 3 -31 15
-45 27 -21 18 -24 31 -28 100 l-3 79 -319 0 -319 0 0 -72 c-1 -77 -12 -102
-57 -127 -31 -16 -612 -15 -648 1 -38 17 -55 58 -55 133 l0 65 -320 0 -320 0
0 -65 c0 -75 -17 -116 -55 -133 -37 -17 -613 -17 -650 0 -38 17 -55 58 -55
133 l0 65 -92 -1 c-57 0 -106 -6 -126 -15z"/>
<path d="M1919 2704 c-477 -86 -857 -439 -981 -912 -29 -108 -31 -130 -32
-292 -1 -190 8 -258 55 -401 117 -362 400 -654 759 -784 141 -50 250 -68 420
-68 170 0 279 18 420 68 405 146 703 490 796 917 22 102 29 306 15 409 -40
282 -163 531 -356 722 -181 179 -411 298 -662 342 -106 19 -330 18 -434 -1z"/>
</g>
</svg>
