<?xml version="1.0" encoding="UTF-8" standalone="no"?>
<svg
   width="128px"
   height="128px"
   stroke-width="1.49"
   viewBox="0 0 24 24"
   fill="none"
   color="#000000"
   version="1.1"
   id="svg12"
   sodipodi:docname="calendar-plus.svg"
   xml:space="preserve"
   inkscape:version="1.2 (dc2aedaf03, 2022-05-15)"
   xmlns:inkscape="http://www.inkscape.org/namespaces/inkscape"
   xmlns:sodipodi="http://sodipodi.sourceforge.net/DTD/sodipodi-0.dtd"
   xmlns="http://www.w3.org/2000/svg"
   xmlns:svg="http://www.w3.org/2000/svg"><defs
     id="defs16" /><sodipodi:namedview
     id="namedview14"
     pagecolor="#ffffff"
     bordercolor="#000000"
     borderopacity="0.25"
     inkscape:showpageshadow="2"
     inkscape:pageopacity="0.0"
     inkscape:pagecheckerboard="0"
     inkscape:deskcolor="#d1d1d1"
     showgrid="false"
     inkscape:zoom="8.0234375"
     inkscape:cx="68.923077"
     inkscape:cy="70.667965"
     inkscape:window-width="3840"
     inkscape:window-height="2126"
     inkscape:window-x="3829"
     inkscape:window-y="-11"
     inkscape:window-maximized="1"
     inkscape:current-layer="svg12" /><path
     d="M15 4V2m0 2v2m0-2h-4.5M3 10v9a2 2 0 002 2h14a2 2 0 002-2v-9H3zM3 10V6a2 2 0 012-2h2M7 2v4M21 10V6a2 2 0 00-2-2h-.5"
     stroke="#000000"
     stroke-width="1.49"
     stroke-linecap="round"
     stroke-linejoin="round"
     id="path10" /><g
     style="color:#000000;fill:none;stroke-width:1.49"
     id="g35"
     transform="matrix(0.63447987,0,0,0.63447987,4.2927659,7.704645)"><path
       d="m 6,12 h 6 m 6,0 h -6 m 0,0 V 6 m 0,6 v 6"
       stroke="#000000"
       stroke-width="1.49"
       stroke-linecap="round"
       stroke-linejoin="round"
       id="path26" /></g></svg>
