<?xml version="1.0" encoding="UTF-8" standalone="no"?>
<svg
   width="700pt"
   height="700pt"
   version="1.1"
   viewBox="0 0 700 700"
   id="svg20"
   sodipodi:docname="lock.svg"
   inkscape:version="1.2 (dc2aedaf03, 2022-05-15)"
   xmlns:inkscape="http://www.inkscape.org/namespaces/inkscape"
   xmlns:sodipodi="http://sodipodi.sourceforge.net/DTD/sodipodi-0.dtd"
   xmlns="http://www.w3.org/2000/svg"
   xmlns:svg="http://www.w3.org/2000/svg">
  <defs
     id="defs24" />
  <sodipodi:namedview
     id="namedview22"
     pagecolor="#ffffff"
     bordercolor="#000000"
     borderopacity="0.25"
     inkscape:showpageshadow="2"
     inkscape:pageopacity="0.0"
     inkscape:pagecheckerboard="0"
     inkscape:deskcolor="#d1d1d1"
     inkscape:document-units="pt"
     showgrid="false"
     inkscape:zoom="1.1003571"
     inkscape:cx="466.21227"
     inkscape:cy="466.21227"
     inkscape:window-width="3840"
     inkscape:window-height="2126"
     inkscape:window-x="3829"
     inkscape:window-y="-11"
     inkscape:window-maximized="1"
     inkscape:current-layer="svg20" />
  <g
     fill-rule="evenodd"
     id="g18"
     transform="translate(0,66.796495)">
    <path
       d="M 480.67,186.67 C 480.67,114.502 422.166,56 350,56 277.834,56 219.33,114.5 219.33,186.67 v 112 h 37.336 v -112 c 0,-51.547 41.785,-93.336 93.332,-93.336 51.547,0 93.332,41.789 93.332,93.336 v 112 h 37.336 z"
       id="path14" />
    <path
       d="m 163.33,280.11 v 186.45 c 0,20.68 16.77,37.441 37.164,37.441 h 299.01 c 20.523,0 37.164,-16.746 37.164,-37.441 V 280.11 c 0,-20.68 -16.77,-37.441 -37.164,-37.441 h -299.01 c -20.523,0 -37.164,16.742 -37.164,37.441 z"
       id="path16" />
  </g>
</svg>
