<?xml version="1.0" encoding="UTF-8" standalone="no"?>
<svg
   width="700pt"
   height="700pt"
   version="1.1"
   viewBox="0 0 700 700"
   id="svg12"
   sodipodi:docname="qr.svg"
   inkscape:version="1.2 (dc2aedaf03, 2022-05-15)"
   xmlns:inkscape="http://www.inkscape.org/namespaces/inkscape"
   xmlns:sodipodi="http://sodipodi.sourceforge.net/DTD/sodipodi-0.dtd"
   xmlns="http://www.w3.org/2000/svg"
   xmlns:svg="http://www.w3.org/2000/svg">
  <defs
     id="defs16" />
  <sodipodi:namedview
     id="namedview14"
     pagecolor="#ffffff"
     bordercolor="#000000"
     borderopacity="0.25"
     inkscape:showpageshadow="2"
     inkscape:pageopacity="0.0"
     inkscape:pagecheckerboard="0"
     inkscape:deskcolor="#d1d1d1"
     inkscape:document-units="pt"
     showgrid="false"
     inkscape:zoom="1.1003571"
     inkscape:cx="466.21227"
     inkscape:cy="466.21227"
     inkscape:window-width="3840"
     inkscape:window-height="2126"
     inkscape:window-x="3829"
     inkscape:window-y="-11"
     inkscape:window-maximized="1"
     inkscape:current-layer="svg12" />
  <path
     d="M 263.27361,92.751704 H 95.273612 V 260.7517 H 263.27361 Z m -56,111.999996 h -56 v -56 h 56 z m -111.999998,392 H 263.27361 v -168 H 95.273612 Z m 55.999998,-112 h 56 v 56 h -56 z m 280,-391.999996 V 260.7517 h 168 V 92.751704 Z m 112,111.999996 h -56 v -56 h 56 z m -224,-111.999996 h 56 V 204.7517 h -56 z m 0,167.999996 h 56 v 56 h -56 z m -223.999998,56 h 55.999998 v 56 H 95.273612 Z m 111.999998,0 h 112 v 56 h -112 z m 224,112 h 56 v 56 h -56 z m -112,56 v 56 h 56 v -112 h -56 z m 56,56 h 56 v 56 h -56 z m 0,-224 h 56 v 112 h -56 z m 168,0 h -56 v 56 h 56 v 56 h 56 v -112 z m 0,224 h -56 v 56 h 112 v -112 h -56 z"
     id="path10" />
</svg>
