<?xml version="1.0" encoding="UTF-8"?><svg id="b" xmlns="http://www.w3.org/2000/svg" viewBox="0 0 300.37 400.81"><defs><style>.f{fill:#8c2323;}</style></defs><g id="c"><g><g id="d"><path id="e" d="M40.42,400.62c-3.45-.93-5.8-3.84-6.04-7.5-.12-1.75,.27-3.05,1.62-5.42,11.44-20.14,23.3-43.02,33.17-63.97,.45-.97,1.03-2.2,1.29-2.73,.25-.54,.71-1.51,1.01-2.17,.3-.65,.69-1.49,.86-1.86,2.61-5.6,6.76-14.93,10.06-22.61,18-41.89,32.97-85.84,45.66-134.07,2.04-7.76,6.46-25.55,6.46-25.98,0-.08-.49-.44-1.09-.81-4.44-2.73-8.77-7.16-11.52-11.79-2.43-4.09-3.81-8.4-4.32-13.49-.16-1.58-.13-5.61,.05-7.24,.56-5.03,1.89-9.1,4.33-13.19,2.56-4.3,6.64-8.54,10.97-11.38,7.19-4.72,16.38-6.34,25.46-4.49,4.38,.89,8.73,2.86,12.4,5.61,6.11,4.58,10.61,10.84,12.56,17.49,.46,1.58,.86,3.48,1.11,5.34,.25,1.84,.25,7.06,0,8.88-.93,6.67-3.25,11.98-7.41,16.93-1.22,1.45-3.81,4-5.2,5.11-1.1,.88-3.73,2.67-4.08,2.79-.11,.04-.21,.11-.21,.16,0,.17,1.99,8.36,3.52,14.45,7.89,31.53,17.03,62.02,27.24,90.93,17.83,50.47,40.35,99.71,67.57,147.76,1.59,2.8,1.78,3.38,1.78,5.39,0,1.28-.03,1.61-.24,2.27-.88,2.82-3.22,5.02-5.98,5.64-1.07,.24-3.09,.16-4.1-.16-1.41-.45-2.29-.98-3.36-2.06-1.09-1.1-.68-.44-4.91-8.01-3.84-6.89-8.61-15.7-12.02-22.22l-1.47-3.09-84.51,.32H66.53l-.87,1.66c-4.4,8.34-8.39,15.7-12.33,22.77-3.48,6.23-4.08,7.27-4.59,7.96-.99,1.31-2.65,2.37-4.37,2.78-1.14,.27-2.95,.28-3.94,.01h0Zm167.93-51.34s-1.26-.66-32.24-16.32l-22.59-11.42-27.69,13.89-27.69,13.89h55.13c30.32,0,55.11-.01,55.08-.03h0Zm-86.98-29.65l14.28-7.17-4.68-2.37c-2.57-1.31-10-5.06-16.5-8.34-6.5-3.28-12.43-6.27-13.17-6.65l-1.35-.69-2.41,5.63c-5.54,12.93-11.79,26.69-17.7,38.97-.49,1.02-.89,1.86-.89,1.89s6.33-3.14,14.07-7.03c7.74-3.89,20.5-10.29,28.35-14.24h0Zm100.23,17.97c-.08-.18-.83-1.75-1.66-3.48-1.45-3.01-5.73-12.14-5.73-12.22,0-.02-.24-.54-.53-1.16-.29-.62-.83-1.8-1.2-2.62s-.79-1.75-.93-2.07c-1.14-2.5-3.96-8.93-5.88-13.42-1.27-2.98-2.37-5.54-2.44-5.68l-.13-.26-15.71,7.9c-8.64,4.35-15.74,7.93-15.77,7.96-.04,.04,49.81,25.3,50.09,25.39,.01,0-.04-.14-.12-.33h0Zm-58.94-38.68c4.98-2.49,10.29-5.16,11.8-5.93l2.74-1.42-23.54,.32h-23.54l11.72,5.63c6.45,3.26,11.73,5.93,11.74,5.94,.01,0,4.1-2.04,9.09-4.53h0Zm16.7-23.64c-.17-.1-6.49-4.04-14.04-8.74-7.55-4.7-13.78-8.55-13.84-8.55-.06,0-6.28,3.85-13.84,8.55-7.55,4.7-13.87,8.63-14.04,8.74-.3,.18,.49,.19,27.88,.19s28.18,0,27.88-.19Zm-54.87-19.53c11.22-6.98,11.75-7.32,11.53-7.46-.13-.08-3.44-2.14-7.36-4.57-3.92-2.43-7.22-4.48-7.34-4.56-.21-.13-.25-.04-1.33,3.04-1.19,3.39-3.84,10.75-4.97,13.81-.38,1.02-.79,2.16-.92,2.53-.13,.37-.29,.79-.35,.93-.06,.14-.32,.82-.57,1.5-.25,.68-.56,1.48-.67,1.78l-.22,.55,.21-.11c.12-.06,5.51-3.4,11.98-7.43Zm63.49,2.77c-1.81-4.88-4.27-11.73-5.68-15.78-.58-1.68-1.09-3.09-1.14-3.13-.07-.07-13.85,8.41-14.21,8.75-.09,.08,2.76,1.91,11.15,7.15,6.2,3.87,11.29,7.02,11.31,7,.02-.02-.62-1.82-1.43-3.99h0Zm-30.9-23.03l5.53-3.3h-5.59c-3.08-.18-8.07-.18-11.1,0h-5.51l5.49,3.29c3.02,1.89,5.53,3.43,5.58,3.43,.05,0,2.57-1.54,5.61-3.43h0Zm7.51-19.78c-.12-.1-3.25-2.78-6.96-5.96-3.71-3.18-6.77-5.77-6.81-5.76-.04,.01-3.08,2.62-6.76,5.78-3.68,3.17-6.8,5.84-6.92,5.93-.21,.17,.49,.18,13.72,.18,13.19,0,13.93-.01,13.73-.18h0Zm4.54-13.39c-.74-2.43-2.7-9.05-3.17-10.71l-.14-.49-3.04,2.6c-1.67,1.43-3.04,2.63-3.04,2.67,0,.07,10.2,8.88,10.24,8.84,.01-.01-.37-1.32-.85-2.9h0Zm-32.14-1.58c2.56-2.2,4.76-4.08,4.88-4.17,.26-.2,.6,.14-3.21-3.14l-2.45-2.11-.22,.75c-.12,.41-.42,1.42-.66,2.24-.54,1.87-3,10.12-3.07,10.3-.03,.07-.02,.13,.01,.13s2.16-1.8,4.72-4h0Zm17.31-13.17l2.92-2.49h-6.33c-5.52,0-6.31,.02-6.18,.15,.08,.08,1.5,1.31,3.15,2.73l2.99,2.58,.26-.24c.14-.13,1.57-1.36,3.18-2.73h0Zm5.55-17.84c-.67-2.17-5.45-21.02-6.98-27.49-.46-1.96-.87-3.65-.89-3.75-.05-.16-.16-.18-.94-.15l-.89,.03-.45,1.91c-.65,2.76-4.35,17.62-5.04,20.24-1.12,4.26-2.22,8.42-2.37,8.91l-.14,.49h8.88c8.41,0,8.88,0,8.83-.18Zm-113.12,40.43c-1.43-.29-2.73-.88-3.92-1.79-1.18-.9-5.89-5.98-9-9.71-.74-.89-1.44-1.72-1.56-1.86-.12-.14-.8-.99-1.52-1.91-14.52-18.47-23.73-38.53-28.04-61.08-3.87-20.26-3.57-43.18,.84-63.09C8.23,49.54,17.48,30.35,31.36,13.01c2.77-3.46,6.6-7.84,8.76-10.02,2.11-2.13,4.15-2.99,7.07-2.99,2.72,0,4.63,.75,6.57,2.56,1.57,1.47,2.53,3.17,2.94,5.17,.14,.67,.16,1.19,.12,2.27-.06,1.6-.23,2.37-.8,3.59-.56,1.22-1,1.83-2.41,3.37-3.94,4.29-6.52,7.37-9.36,11.13-10.41,13.79-17.83,29.63-21.53,45.99-2.28,10.09-3.28,19.28-3.28,30.15,0,5.96,.24,10.61,.82,15.75,2.68,23.88,11.5,45.12,26.53,63.86,2.39,2.98,4.25,5.11,7.46,8.54,1.05,1.12,2.09,2.28,2.32,2.58,2.03,2.69,2.4,6.66,.9,9.78-.57,1.2-1.17,2-2.25,3.01-1.38,1.3-2.89,2.08-4.65,2.42-.93,.18-2.93,.17-3.84,0h0Zm202.99,0c-1.73-.37-3.22-1.16-4.56-2.42-1.08-1.02-1.67-1.81-2.25-3.01-1.26-2.63-1.22-5.85,.1-8.46,.52-1.04,.98-1.62,2.56-3.29,4.08-4.33,7.48-8.31,10.52-12.35,13.45-17.88,21.44-37.96,23.99-60.25,.99-8.7,1.16-18.35,.46-27.36-2.06-26.77-11.99-50.76-29.48-71.25-1.37-1.6-2.31-2.66-4.32-4.84-1.9-2.06-2.65-3.35-3.04-5.29-.21-1.03-.21-2.95,0-3.98,.4-1.94,1.38-3.65,2.92-5.1,1.01-.95,1.65-1.37,2.87-1.9,1.27-.55,2.27-.7,4.1-.64,2.32,.08,3.72,.55,5.43,1.84,1.16,.87,4.83,4.87,8.23,8.98,18.09,21.81,28.81,47.13,32.09,75.73,1.21,10.61,1.36,19.87,.47,30.56-2.34,28.2-11.81,53.44-28.2,75.17-2.62,3.47-3.59,4.68-6.07,7.58-2.82,3.3-6.79,7.57-7.78,8.35-1.11,.88-2.18,1.42-3.53,1.8-.96,.26-3.53,.34-4.49,.14h0Zm-174.39-25.56c-1.58-.21-2.82-.66-4.08-1.49-1.33-.89-5.07-4.8-8.41-8.79-13.33-15.96-21.38-34.45-24.01-55.18-1.19-9.4-1.26-18.58-.22-27.88,1.78-15.77,6.44-29.79,14.28-43,3.61-6.08,8.24-12.27,13.39-17.91,3.05-3.33,3.78-3.97,5.46-4.75,1.43-.66,2.03-.77,4.14-.77,1.75,0,1.91,.02,2.74,.3,1.57,.52,2.63,1.16,3.89,2.36,1.94,1.84,2.92,4.2,2.92,6.99,0,1.84-.37,3.27-1.25,4.8-.44,.77-.74,1.12-3.7,4.36-15.39,16.81-23.23,37.26-23.24,60.65,0,21.96,6.82,41.19,20.43,57.55,1.56,1.87,2.49,2.91,4.91,5.49,1.02,1.09,2.01,2.23,2.2,2.55,.53,.88,1.02,2.1,1.2,3,.22,1.07,.22,3.09,0,4.15-.73,3.56-3.81,6.67-7.34,7.41-.93,.2-2.5,.27-3.34,.16h0Zm147.34,0c-2.21-.29-4.04-1.18-5.61-2.75-2.17-2.16-3.1-4.72-2.84-7.84,.1-1.21,.32-2.05,.81-3.1,.57-1.22,.86-1.6,2.83-3.68,2.29-2.42,3.25-3.5,4.83-5.39,13.62-16.36,20.44-35.58,20.43-57.55,0-19.05-5.17-36.07-15.42-50.86-2.28-3.28-5.1-6.82-7.82-9.78-2.97-3.24-3.26-3.59-3.7-4.36-.88-1.53-1.25-2.96-1.25-4.8,0-2.79,.99-5.15,2.92-6.99,2.14-2.04,4.14-2.79,7.11-2.69,1.68,.06,2.4,.22,3.66,.8,1.5,.7,2.3,1.33,4.23,3.41,15.29,16.39,24.43,34.45,28.02,55.34,1.6,9.3,2.06,19.82,1.29,29.53-1.69,21.41-8.96,40.37-21.89,57.05-3.91,5.05-9.35,10.99-11.15,12.19-.94,.63-2.08,1.11-3.11,1.33-.93,.2-2.5,.27-3.34,.16h0Zm-123.54-22.88c-2.16-.48-3.32-1.22-5.73-3.64-4.73-4.76-8.67-9.79-11.95-15.25-.94-1.56-2.65-4.7-3.01-5.53-.11-.25-.43-.94-.71-1.55-2.85-6.03-5.09-13.98-6.01-21.31-.5-3.99-.57-5.24-.57-10.58,0-5.48,.08-6.96,.62-11.05,2.17-16.38,9.24-30.63,21.28-42.91,1.46-1.49,2.14-2.03,3.3-2.62,2.5-1.28,6.04-1.29,8.54-.04,1.05,.53,1.56,.89,2.48,1.79,2.05,1.98,2.96,4.11,2.96,6.98,0,1.74-.28,2.98-.99,4.39-.46,.93-.97,1.56-2.85,3.53-2.06,2.17-3.33,3.65-4.84,5.66-6.25,8.3-9.75,17.29-10.9,28.02-.22,2.09-.32,8.05-.16,10.33,.7,10.26,3.63,19.08,9.04,27.25,2.1,3.18,4.37,5.95,7.48,9.17,1.95,2.02,2.31,2.48,2.89,3.69,.7,1.46,.86,2.26,.86,4.17,0,1.37-.04,1.79-.22,2.48-.88,3.24-3.52,5.94-6.73,6.87-1.05,.3-3.72,.38-4.8,.14Zm98.22,.06c-3.55-.6-6.66-3.48-7.64-7.07-.19-.69-.22-1.11-.22-2.48,0-1.91,.17-2.72,.86-4.17,.58-1.21,.95-1.68,2.78-3.57,3.44-3.54,5.99-6.72,8.18-10.17,5.05-7.97,7.78-16.49,8.46-26.37,.16-2.28,.07-8.24-.16-10.33-.93-8.67-3.35-16.07-7.58-23.13-2.15-3.6-4.67-6.86-8.03-10.41-2.01-2.13-2.51-2.74-2.98-3.68-.71-1.42-.99-2.66-.99-4.39,0-2.87,.9-5,2.96-6.98,.93-.89,1.43-1.26,2.48-1.79,2.5-1.26,6.04-1.24,8.54,.04,1.16,.59,1.84,1.14,3.3,2.62,11.85,12.08,18.93,26.18,21.17,42.15,.63,4.51,.83,7.93,.75,13.18-.07,4.99-.37,8.34-1.11,12.64-2.65,15.28-9.7,28.68-21.16,40.2-1.15,1.15-2.08,2-2.56,2.31-.92,.6-2.19,1.12-3.24,1.34-.84,.17-2.95,.2-3.82,.06h0Z"/></g><circle class="f" cx="150.27" cy="104.28" r="46.4"/></g></g></svg>